<?xml version="1.0" encoding="UTF-8"?><svg xmlns="http://www.w3.org/2000/svg" viewBox="0 0 314.93 294.33"><defs><style>.cls-1{fill:#943417;}.cls-1,.cls-2,.cls-3,.cls-4,.cls-5,.cls-6,.cls-7,.cls-8,.cls-9,.cls-10,.cls-11,.cls-12,.cls-13{stroke-width:0px;}.cls-2{fill:#fffaed;}.cls-3{fill:#e07648;}.cls-4{fill:#fed96b;}.cls-5{fill:#ec6565;}.cls-6{fill:#fccb0b;}.cls-7{fill:#f2928b;}.cls-8{fill:#923114;mix-blend-mode:multiply;opacity:.27;}.cls-9{fill:#d34116;}.cls-10{fill:#1e3437;}.cls-14{isolation:isolate;}.cls-11{fill:#f8f4e7;}.cls-12{fill:#6d2010;}.cls-13{fill:#f4bd0e;}</style></defs><g class="cls-14"><g id="Layer_2"><g id="Layer_1-2"><path class="cls-13" d="M291.55,186.85c-1.25,12.52-8.73,24.26-19.53,30.69-6.95,4.12-16.49,7.24-24.82,7.22.43,17.58-1.9,36.68-7.36,50.78-4.28,11.02-7.51,12.51-18.9,12.72-5.55.11-18.94.82-22.85-3.14-4.14-4.19-6.02-11.65-7.31-18.81-20.05,7.65-60.21,8.22-88.48.7-1.36,8.39-3.03,18.37-8.1,23.49-3.91,3.96-17.29,3.24-22.85,3.14-11.4-.21-14.62-1.7-18.9-12.72-5.47-14.1-7.79-33.2-7.36-50.78-8.33.02-17.86-3.1-24.8-7.22-10.82-6.43-18.29-18.17-19.55-30.69-1.33-13.35,4.21-26.81,13.06-36.89,7.45-8.48,17.08-14.76,27.36-19.53.45-4.64,1.29-9.25,2.49-13.76-2.72.79-5.5,1.33-8.12,1.67.57-13.62,8.39-30.71,18.56-41.45-4.34,1.15-9.43,1.13-13.24.79,4.16-18.22,24.42-40.59,44.69-42.97,2.22-5.95,6.65-12.22,11.34-15.66,22.67-16.59,53.4-20.41,79.81-13.56-5.63,2.08-10.7,5.72-14.46,10.37,28.85-2.24,68.91,19.51,76.39,47.86-4.48-2.04-9.32-3.42-14.14-3.57,14.75,19.94,18.94,48.29,20.34,61.84,11.9,5.7,26.52,14.46,33.67,22.6,8.85,10.09,14.39,23.54,13.06,36.89Z"/><path class="cls-6" d="M244.82,127.36c-1.4-13.55-5.59-41.89-20.34-61.84,4.82.14,9.66,1.52,14.14,3.57-7.47-28.35-47.54-50.1-76.39-47.86,3.76-4.66,8.83-8.3,14.46-10.37-26.41-6.84-57.14-3.03-79.81,13.56-4.69,3.44-9.12,9.71-11.34,15.66-20.27,2.38-40.53,24.75-44.69,42.97,3.82.34,8.91.36,13.24-.79-10.18,10.73-17.99,27.83-18.56,41.45,2.62-.34,5.39-.88,8.12-1.67-1.2,4.52-2.04,9.12-2.49,13.76-10.29,4.77-19.91,11.06-27.36,19.53l-.06.07c-2.37,2.71.04,6.9,3.57,6.19,8.33-1.67,16.64-5.75,24.57-7.94-.12,3.85.18,7.99.65,12.19.94,8.56,11.37,12.18,17.48,6.11,2.2-2.18,4.42-4.32,6.76-6.35,4.23,7.72,9.96,16.41,16.74,23.58,6.65,7.04,18.24,5.19,22.32-3.59,2.54-5.47,5.21-10.9,7.88-16.14,7.79,14.16,16.32,22.72,22.29,27.5,4.32,3.46,10.66,2.5,13.71-2.11,3.93-5.94,8.49-15.51,9.28-28.58,2.05,2.67,13.86,12.5,22.74,19.75,5.07,4.14,12.69,2.19,15.16-3.87,3.32-8.17,7.25-18.4,8.4-23.64,6.88,10.26,14.42,16.3,20.79,19.86,7.02,3.92,15.67-1.31,15.32-9.34-.24-5.51-.95-11.69-2.67-16.79,7.23,6.53,24.14,13.37,34.68,13.05,1.83-.05,3.33-1.46,3.58-3.27.58-4.19,1.21-8.81,1.19-12.39-7.25-8.04-21.63-16.65-33.37-22.27Z"/><path class="cls-8" d="M224.48,65.52c4.82.14,9.66,1.52,14.14,3.57-7.47-28.35-47.54-50.1-76.39-47.86,3.76-4.66,8.83-8.3,14.46-10.37-26.41-6.84-57.14-3.03-79.81,13.56-4.69,3.44-9.12,9.71-11.34,15.66-20.27,2.38-40.53,24.75-44.69,42.97,3.82.34,8.91.36,13.24-.79-10.18,10.73-17.99,27.83-18.56,41.45,2.62-.34,5.39-.88,8.12-1.67-1.2,4.52-2.04,9.12-2.49,13.76-10.29,4.77-19.91,11.06-27.36,19.53-8.85,10.09-14.39,23.54-13.06,36.89,1.25,12.52,8.73,24.26,19.55,30.69,6.93,4.12,16.47,7.24,24.8,7.22-.43,17.58,1.9,36.68,7.36,50.78,4.28,11.02,7.51,12.51,18.9,12.72,5.55.11,18.94.82,22.85-3.14,5.07-5.12,6.74-15.11,8.1-23.49,16,4.26,62.38,10.05,88.48-.7-1.47-.19-33.65,3.49-35.06,3.29-8.75-1.26-20.88.14-29.57-1.49-3.93-.74-10.07-1.88-14.04-2.39-4.34-.56-11.35-3.58-11.95-1.49-.99,3.47-2.11,14.47-7.47,20.61-4.04,4.62-12.91,4.09-18.57,3.14-13.1-2.19-16.87-14.32-17.31-26.05-.26-6.99.32-13.98.37-20.97.04-6.56.14-14.95-4.6-20.12-7.4-8.06-21.35-1.61-28.11-10.84-6.04-8.24-8.17-23.57-5.54-32.38,2.65-8.86,8.99-17.1,17-21.69,7.87-4.52,14.62-6.64,18.05-15.62,2.73-7.14,3.34-15.22,3.29-22.8-.04-5.42-4.7-8.54-9.6-7.64,4.67-13.41,17.09-21.67,23.19-34.21-3.7-1.48-8.6-4.25-12.94-5.27,7.9-14.31,25.91-21.48,31.2-21.48,2.39,0-.3-17.02,31.66-29.86,6.76-2.72,27.61-6.11,35.18-3.9-2.32,4.97-4.21,12.09-6.35,15.91,16.48-2.22,32.1.43,47.4,7.05,6.62,2.86,13.15,6.1,19.15,10.14,4.1,2.76,8.39,6.03,10.82,10.44-5.93-.64-13.69.06-18.99,1.49,16.12,10.83,33.68,43.62,36.84,67.18.02,0-.81-6.6-.79-6.6-2.01-14.83-6.89-38.12-19.55-55.24Z"/><path class="cls-12" d="M211.57,108.04c-.07,1.51-1.06,4.21-2.38,6.67-.23.45-.48.9-.73,1.33-.07.13-.16.25-.23.38-3.64,5.98-9.6,10.91-15.27,14.68-14.25,9.42-32,13.37-48.95,12.44-12.51-.7-24.8-4.5-35.66-10.75-8.21-4.71-21.81-13.42-24.32-23.22-.45-1.77-.36-3.76.36-5.43,0,0,.02-.02.02-.04,1.13-2.06,3.15-3.42,5.63-3.51,3.05-.11,6.84,1.4,9.73,2.4,5.12,1.83,10.39,3.31,15.77,4.14,9.96,1.54,24.19,3.69,34.22,2.72,15.59-1.51,25.98-2.99,42.5-9.21,4.01-1.52,13.03-2.71,16.63-.36,2.44,1.59,2.81,4.86,2.69,7.78Z"/><path class="cls-7" d="M188.29,133.9c-13.35,7.4-29.15,10.45-44.29,9.62-10.88-.61-21.61-3.57-31.36-8.44,2.4-4.86,6.34-6.84,11.95-8.28,7.72-1.95,17.83-1.45,24.53,3.35,4.21-4.61,10.75-6.54,17-6.5,7.78.05,17.7,3.85,22.17,10.25Z"/><path class="cls-2" d="M115.09,107.04c-.09,1.51-.27,3.01-.77,4.44-.72,2.01-2.22,3.87-4.26,4.46-.91.27-1.88.29-2.81.25-2.47-.05-4.95-.32-7.38-.77-2.31-.45-4.78-1.16-6.2-3.05-1.85-2.42-1.33-5.82-.72-8.82.18-.86.34-1.72.52-2.58,2.17.48,4.43,1.34,6.29,1.99,4.98,1.77,10.11,3.24,15.34,4.07Z"/><path class="cls-2" d="M148.3,109.94c-.07,1.61-.29,3.24-.64,4.82-.29,1.2-.66,2.42-1.43,3.37-1.83,2.26-5.16,2.38-8.05,2.19-2.87-.2-5.72-.56-8.53-1.06-2.72-.48-5.59-1.2-7.44-3.24-1.97-2.17-2.26-5.18-1.99-8.19,8.87,1.31,19.71,2.67,28.08,2.11Z"/><path class="cls-2" d="M180.57,110.57c-2.91,6.23-15.32,8.19-21.34,6.44-2.44-.71-3.3-3.47-3.75-5.69-.14-.68-.25-1.36-.36-2.04,9.32-1,17.04-2.22,26.2-4.95.09,2.11.14,4.32-.75,6.24Z"/><path class="cls-2" d="M208.09,106.31c-.86,2.19-2.78,3.82-4.93,4.71-2.15.91-4.52,1.15-6.86,1.16-2.31,0-4.84-.3-6.49-1.92-1.43-1.4-1.9-3.48-2.31-5.45-.16-.77-.32-1.54-.48-2.31,1.68-.57,3.42-1.2,5.23-1.88,3.85-1.45,12.29-2.6,16.14-.63.02.04.02.05.02.09.3,2.08.45,4.26-.32,6.22Z"/><path class="cls-1" d="M41.04,82.65c-.08-.02.1-.91.49-2.51.44-1.59,1.21-3.86,2.44-6.54.6-1.35,1.39-2.76,2.19-4.3.91-1.48,1.8-3.11,2.95-4.69,2.16-3.25,4.9-6.58,8.07-9.78,6.29-6.49,13.52-10.71,19.05-12.74.34-.13.68-.27,1.01-.39.34-.1.67-.19.99-.28.64-.18,1.25-.35,1.81-.5.57-.14,1.08-.33,1.58-.39.5-.07.95-.14,1.36-.2,1.63-.23,2.54-.32,2.55-.24.01.08-.87.32-2.46.69-.4.09-.84.19-1.32.3-.49.09-.98.31-1.54.48-.55.18-1.13.37-1.75.58-.31.1-.63.21-.96.31-.32.14-.64.28-.97.43-5.35,2.19-12.33,6.42-18.52,12.79-3.12,3.14-5.83,6.4-8.01,9.56-1.16,1.54-2.06,3.13-3,4.56-.83,1.49-1.65,2.86-2.29,4.17-2.63,5.2-3.47,8.75-3.69,8.69Z"/><path class="cls-1" d="M60.75,78.47c.06.06-.11.31-.46.73-.18.2-.4.46-.67.73-.3.25-.63.54-1,.86-.77.61-1.76,1.24-2.94,1.8-1.19.53-2.57.97-4.06,1.22-2.99.45-5.7.09-7.58-.27-1.89-.38-3.02-.73-3-.89.02-.17,1.22-.11,3.11.06,1.89.15,4.49.36,7.28-.07,1.39-.23,2.67-.61,3.81-1.05,1.12-.48,2.1-.99,2.89-1.49.39-.25.75-.48,1.06-.69.3-.22.57-.41.78-.56.44-.3.71-.44.77-.38Z"/><path class="cls-1" d="M46.75,158.2s-.65.55-1.82,1.61c-1.14,1.09-2.71,2.9-3.94,5.65-1.24,2.73-1.99,6.45-1.62,10.7.17,2.12.64,4.38,1.5,6.63.86,2.26,2.05,4.54,3.93,6.43,3.72,3.88,8.97,6.87,13.68,11.31,2.33,2.22,4.55,4.92,5.67,8.29,1.12,3.36.99,7.17-.33,10.65-1.37,3.49-4.13,6.41-7.47,8.33-3.32,1.95-7.32,2.97-11.29,2.9-3.98.02-7.99-.66-11.92-1.73-3.93-1.1-7.8-2.61-11.49-4.6-7.42-3.97-13.31-10.21-16.96-17.23-3.75-7-5.16-14.83-4.57-22.07.55-7.27,2.92-13.92,5.99-19.57,3.09-5.66,6.97-10.34,10.89-14.13,3.95-3.78,7.95-6.73,11.59-9.06,3.65-2.34,6.96-4.07,9.7-5.4,2.74-1.33,4.93-2.23,6.41-2.83.75-.28,1.32-.5,1.71-.64.39-.14.59-.2.6-.18,0,.02-.18.12-.55.29-.37.17-.93.42-1.66.75-1.45.67-3.6,1.63-6.3,3.02-2.69,1.39-5.96,3.17-9.54,5.54-3.58,2.37-7.5,5.33-11.37,9.11-3.84,3.79-7.61,8.42-10.61,14-2.98,5.57-5.26,12.09-5.77,19.18-.53,7.06.85,14.65,4.51,21.45,3.56,6.82,9.28,12.87,16.5,16.73,3.6,1.94,7.4,3.43,11.24,4.51,3.85,1.05,7.76,1.72,11.6,1.7,3.85.08,7.55-.87,10.73-2.71,3.16-1.82,5.74-4.53,7.02-7.76,1.23-3.22,1.38-6.81.35-9.92-1.02-3.14-3.11-5.74-5.36-7.91-4.56-4.37-9.8-7.41-13.61-11.44-.94-1.01-1.79-2.09-2.43-3.26-.64-1.15-1.17-2.32-1.6-3.49-.86-2.34-1.31-4.66-1.46-6.84-.31-4.37.52-8.18,1.86-10.94,1.33-2.79,2.98-4.58,4.2-5.63.6-.54,1.13-.86,1.46-1.11.34-.24.52-.35.53-.33Z"/><path class="cls-1" d="M103.61,259.6s-.01.47-.15,1.35c-.13.88-.32,2.17-.57,3.84-.51,3.33-1.04,8.19-2.51,14.08-.78,2.92-1.77,6.15-3.68,9.25-.26.38-.51.76-.77,1.14-.26.38-.6.72-.9,1.08l-.47.54-.58.49c-.38.36-.84.54-1.27.81-1.78.9-3.75,1.31-5.74,1.61-4,.57-8.22.6-12.56.52-2.17-.06-4.36-.06-6.63-.2-2.25-.17-4.59-.36-6.84-1.26-1.14-.4-2.17-1.08-3.11-1.81-.89-.8-1.71-1.67-2.33-2.64-1.31-1.91-2.23-3.96-3.06-5.98-1.62-4.05-2.96-8.02-4.04-11.87-2.17-7.7-3.23-14.87-3.65-20.89-.43-6.03-.31-10.92-.13-14.29.07-1.69.2-2.99.28-3.87.09-.88.15-1.35.19-1.34.04,0,.05.47.04,1.36-.01.89-.04,2.19-.06,3.87-.04,3.36-.02,8.23.51,14.21.53,5.97,1.66,13.05,3.87,20.66,1.1,3.8,2.45,7.75,4.07,11.73.83,1.98,1.73,3.97,2.96,5.75.59.91,1.34,1.68,2.13,2.4.85.65,1.75,1.25,2.78,1.61,2.03.81,4.29,1.02,6.48,1.18,2.2.14,4.41.15,6.58.22,4.31.1,8.48.09,12.38-.44,1.93-.28,3.83-.67,5.43-1.46.37-.23.8-.39,1.1-.69l.49-.39.44-.5c.28-.34.6-.64.85-1,.25-.36.5-.72.74-1.07,1.86-2.92,2.89-6.07,3.7-8.94,1.55-5.78,2.22-10.63,2.87-13.94.31-1.66.58-2.94.79-3.81.21-.86.35-1.31.39-1.3Z"/><path class="cls-1" d="M245.54,152.83s.19.1.53.33c.33.25.86.56,1.46,1.11,1.21,1.05,2.87,2.84,4.2,5.63,1.34,2.77,2.17,6.57,1.86,10.94-.15,2.18-.6,4.5-1.46,6.84-.43,1.17-.96,2.34-1.6,3.49-.64,1.16-1.49,2.25-2.43,3.26-3.81,4.04-9.04,7.07-13.61,11.44-2.26,2.18-4.34,4.77-5.36,7.91-1.03,3.11-.88,6.7.35,9.92,1.28,3.23,3.86,5.94,7.02,7.76,3.18,1.84,6.88,2.79,10.73,2.71,3.84.01,7.75-.65,11.6-1.7,3.84-1.08,7.64-2.57,11.24-4.51,7.21-3.86,12.93-9.9,16.5-16.73,3.66-6.81,5.05-14.39,4.51-21.45-.51-7.09-2.78-13.62-5.77-19.18-3-5.59-6.77-10.21-10.61-14-3.87-3.77-7.79-6.74-11.37-9.11-3.59-2.37-6.85-4.15-9.54-5.54-2.7-1.39-4.85-2.35-6.3-3.03-.73-.33-1.28-.58-1.66-.75-.37-.18-.56-.27-.55-.29,0-.02.21.04.6.18.38.14.96.36,1.71.64,1.48.61,3.67,1.5,6.41,2.83,2.74,1.33,6.05,3.06,9.7,5.4,3.65,2.34,7.64,5.28,11.59,9.06,3.92,3.8,7.79,8.47,10.89,14.13,3.07,5.65,5.44,12.29,5.99,19.57.58,7.24-.83,15.07-4.57,22.07-3.65,7.02-9.53,13.26-16.96,17.23-3.69,1.99-7.57,3.5-11.49,4.6-3.93,1.07-7.94,1.75-11.92,1.73-3.98.08-7.97-.94-11.29-2.9-3.33-1.93-6.1-4.84-7.47-8.33-1.32-3.49-1.45-7.29-.33-10.65,1.12-3.37,3.34-6.08,5.67-8.29,4.71-4.44,9.96-7.44,13.68-11.31,1.89-1.9,3.07-4.17,3.93-6.43.86-2.25,1.33-4.51,1.5-6.63.37-4.25-.38-7.97-1.62-10.7-1.23-2.75-2.79-4.55-3.94-5.65-1.18-1.06-1.86-1.57-1.82-1.61Z"/><path class="cls-1" d="M189.47,260.64s.17.42.38,1.24c.21.82.47,2.04.78,3.62.31,1.58.66,3.51,1.15,5.72.51,2.2,1.13,4.72,2.33,7.28.56,1.3,1.34,2.55,2.21,3.81.48.6.93,1.24,1.5,1.8.55.61,1.07,1.13,1.77,1.51,1.38.79,3.05,1.22,4.78,1.54,1.74.32,3.57.46,5.44.56,3.76.19,7.72.06,11.85-.06,2.05-.05,4.13-.15,6.19-.49,2.05-.32,4.04-1.01,5.66-2.29,1.63-1.28,2.77-3.09,3.73-4.93.96-1.85,1.74-3.79,2.46-5.71,1.46-3.84,2.68-7.61,3.67-11.25,1.97-7.28,2.96-14.04,3.42-19.73.47-5.7.47-10.33.43-13.54,0-1.6-.06-2.85-.06-3.69,0-.84,0-1.29.05-1.29.04,0,.1.44.19,1.28.08.84.21,2.08.28,3.69.18,3.21.32,7.87-.06,13.61-.36,5.74-1.26,12.57-3.2,19.95-.97,3.68-2.18,7.5-3.64,11.38-.72,1.94-1.5,3.91-2.5,5.84-1,1.91-2.21,3.86-4.04,5.31-1.83,1.44-4.06,2.2-6.21,2.52-2.16.35-4.28.44-6.35.48-4.12.1-8.12.21-11.94-.01-1.91-.12-3.77-.28-5.57-.63-1.79-.35-3.54-.81-5.09-1.72-.79-.43-1.45-1.11-1.97-1.71-.58-.6-1.05-1.27-1.53-1.9-.89-1.33-1.68-2.65-2.24-4-1.19-2.67-1.76-5.25-2.21-7.49-.44-2.25-.71-4.19-.96-5.78-.24-1.58-.43-2.82-.56-3.65-.13-.83-.18-1.28-.14-1.29Z"/><path class="cls-1" d="M177.52,10.98s-.39-.02-1.09-.16c-.71-.14-1.74-.36-3.07-.67-2.67-.57-6.55-1.26-11.38-1.82-4.84-.45-10.64-.72-17.05-.3-6.4.41-13.41,1.52-20.51,3.59-7.1,2.07-13.6,4.91-19.18,8.06-1.37.83-2.75,1.58-4.02,2.4-1.26.85-2.48,1.67-3.67,2.47-2.31,1.61-4.16,3.52-5.69,5.39-3.06,3.75-4.86,7.29-5.92,9.77-1.04,2.51-1.36,3.99-1.46,3.96-.04,0,.01-.38.15-1.09.15-.71.43-1.74.89-3.04.95-2.57,2.66-6.23,5.7-10.13,1.52-1.94,3.39-3.95,5.77-5.66,1.19-.82,2.41-1.67,3.68-2.55,1.28-.85,2.66-1.63,4.05-2.48,5.62-3.24,12.2-6.15,19.39-8.25,7.19-2.1,14.3-3.19,20.78-3.55,6.48-.36,12.34,0,17.21.56,4.86.67,8.75,1.49,11.39,2.2,1.32.37,2.34.67,3.03.88s1.04.35,1.03.39Z"/><path class="cls-1" d="M35.54,123.7c-.08,0-.15-.77-.21-2.19-.01-.35-.04-.75-.03-1.18.03-.43.06-.9.09-1.4.04-.5.07-1.04.11-1.61.05-.57.17-1.16.27-1.79.11-.62.2-1.28.33-1.96.16-.67.34-1.37.51-2.09.09-.36.18-.73.27-1.1.12-.37.24-.74.36-1.11.25-.75.5-1.53.77-2.32,1.18-3.13,2.75-6.47,4.71-9.8,1.99-3.31,4.2-6.25,6.35-8.81,1.13-1.23,2.15-2.45,3.24-3.46.53-.52,1.04-1.02,1.54-1.5.52-.45,1.02-.88,1.5-1.3.94-.84,1.86-1.53,2.67-2.12.4-.3.78-.57,1.12-.83.36-.23.69-.44.99-.63,1.2-.74,1.88-1.12,1.92-1.05.12.18-2.49,1.87-6.15,5.25-.45.42-.93.87-1.43,1.33-.47.49-.96,1-1.47,1.53-1.04,1.03-2.02,2.25-3.11,3.48-2.07,2.55-4.22,5.46-6.17,8.71-1.92,3.27-3.49,6.52-4.7,9.57-.27.77-.54,1.53-.8,2.26-.13.37-.26.73-.38,1.08-.1.36-.2.72-.3,1.07-.2.7-.39,1.38-.57,2.04-.16.66-.27,1.3-.4,1.91-.98,4.88-.82,8-1.05,8.01Z"/><path class="cls-1" d="M59.71,112.22c.11.07-.61,1.49-2.38,3.33-.87.94-2.06,1.88-3.43,2.85-1.4.92-3.03,1.81-4.81,2.57-3.57,1.5-7,2.23-9.49,2.57-2.49.33-4.05.32-4.07.17-.02-.18,1.5-.45,3.92-.99,2.41-.54,5.73-1.38,9.18-2.83,1.72-.73,3.29-1.56,4.68-2.4,1.35-.88,2.54-1.72,3.45-2.55,1.85-1.61,2.79-2.84,2.95-2.72Z"/><path class="cls-1" d="M41.56,135.29c-.12,0-.24-.78-.37-2.06-.12-1.28-.12-3.1.19-5.05.64-3.92,1.99-6.84,2.19-6.77.27.09-.7,3.11-1.31,6.91-.31,1.9-.4,3.63-.44,4.9-.04,1.27-.14,2.08-.26,2.08Z"/><path class="cls-1" d="M238.29,69.07s-.15-.32-.33-.95c-.08-.31-.19-.7-.31-1.16-.06-.23-.12-.48-.19-.74-.09-.26-.18-.54-.28-.83-.68-2.36-2.04-5.68-4.28-9.45-2.23-3.78-5.56-7.87-9.78-11.84-4.24-3.96-9.42-7.77-15.26-11.06-11.68-6.62-23.57-10.05-32.27-11.19-4.36-.6-7.93-.64-10.39-.54-1.23.03-2.18.13-2.83.19-.65.05-.99.06-1,.02,0-.04.33-.13.97-.25.64-.13,1.59-.31,2.83-.41,2.47-.25,6.1-.33,10.52.17,8.84.94,20.91,4.28,32.75,10.99,5.91,3.34,11.15,7.23,15.42,11.3,4.25,4.08,7.57,8.31,9.75,12.21,2.2,3.89,3.45,7.32,4.01,9.75.08.3.16.58.23.85.05.27.09.53.14.76.08.47.14.87.2,1.2.1.65.13.99.09,1Z"/><path class="cls-1" d="M177.52,10.98c.04.18-1.34.57-3.47,1.39-2.11.83-4.95,2.21-7.53,4.48-2.57,2.27-4.4,4.86-5.69,6.75-1.27,1.9-2.03,3.12-2.19,3.03-.13-.07.37-1.42,1.48-3.47,1.13-2.03,2.9-4.8,5.62-7.2,2.72-2.4,5.79-3.74,8.04-4.39,2.26-.64,3.71-.73,3.74-.6Z"/><path class="cls-1" d="M238.62,69.09c-.08.15-2.95-1.36-6.79-2.34-3.83-1.02-7.06-1.17-7.05-1.34-.01-.15,3.3-.27,7.2.77,3.92,1,6.73,2.78,6.64,2.91Z"/><path class="cls-1" d="M244.71,128.35c-.08,0-.24-1-.48-2.82-.25-1.82-.56-4.45-1.05-7.69-.49-3.24-1.12-7.08-2.04-11.3-.42-2.12-1-4.31-1.55-6.59-.3-1.14-.64-2.28-.97-3.45-.17-.58-.33-1.17-.5-1.76-.19-.58-.38-1.17-.58-1.76-1.46-4.76-3.31-9.13-5.06-13.07-.99-1.91-1.83-3.79-2.78-5.45-.98-1.65-1.81-3.23-2.7-4.6-.9-1.36-1.72-2.59-2.43-3.67-.73-1.07-1.45-1.93-1.99-2.67-1.1-1.46-1.68-2.3-1.62-2.36.06-.05.76.68,1.97,2.07.59.7,1.38,1.52,2.16,2.57.77,1.06,1.64,2.27,2.6,3.61.94,1.35,1.83,2.93,2.85,4.58.99,1.66,1.88,3.54,2.91,5.46,1.82,3.95,3.73,8.37,5.2,13.17.19.6.39,1.19.58,1.78.17.6.34,1.19.5,1.78.32,1.18.67,2.34.96,3.48.55,2.3,1.1,4.52,1.5,6.66.87,4.26,1.42,8.15,1.8,11.41.39,3.27.57,5.92.68,7.76.1,1.84.1,2.85.02,2.86Z"/><path class="cls-3" d="M157.41,94.8c-2.77,7.03-20.5,7.01-24.8,1.41-.33-.43-.57-1.33-.73-2.48-.1-8.24.08-18.9,1.96-26.77,1.6-6.7,17.26-6.47,19.05-.84.95,3.03,5.48,26.22,4.51,28.68Z"/><path class="cls-9" d="M157.65,91.4c-.07.01-.3-1-.63-2.85-.33-1.85-.81-4.51-1.4-7.81-.61-3.29-1.32-7.22-2.37-11.49-.27-1.05-.56-2.19-.92-3.2-.37-.93-1.23-1.68-2.23-2.21-2.01-1.07-4.51-1.45-6.97-1.4-2.47.08-4.93.61-6.8,1.89-.91.65-1.64,1.5-1.92,2.5-.29,1.05-.52,2.2-.73,3.26-.83,4.32-1.18,8.29-1.41,11.61-.22,3.33-.29,6.04-.35,7.91-.06,1.87-.11,2.91-.18,2.91-.07,0-.16-1.03-.22-2.91-.06-1.88-.1-4.59.02-7.95.14-3.35.42-7.36,1.21-11.75.21-1.11.41-2.19.72-3.38.35-1.25,1.25-2.29,2.29-3.04,2.14-1.46,4.75-2.01,7.36-2.1,2.61-.05,5.23.34,7.49,1.54,1.11.6,2.17,1.49,2.66,2.73.42,1.18.66,2.25.94,3.34,1.01,4.34,1.65,8.28,2.16,11.6.51,3.32.86,6.01,1.07,7.87.21,1.86.3,2.9.24,2.91Z"/><path class="cls-9" d="M154.63,73.17c.07-.02.4.87.79,2.51.4,1.64.91,4.03,1.43,7.01.49,2.99,1.15,6.51,1.24,10.58-.03.52-.03,1.05-.21,1.66-.1.27-.23.51-.35.77-.15.23-.29.48-.46.71-.68.9-1.59,1.62-2.57,2.18-1.98,1.12-4.25,1.71-6.57,2-2.33.28-4.63.25-6.82-.05-2.19-.3-4.28-.86-6.12-1.83-.91-.48-1.76-1.08-2.44-1.84-.33-.33-.67-.92-.76-1.37-.17-.48-.21-.93-.3-1.38-.24-1.8-.27-3.46-.29-4.97,0-3.03.17-5.47.32-7.15.16-1.68.36-2.61.43-2.59.07.01,0,.94-.02,2.62-.03,1.68-.09,4.12,0,7.11.06,1.49.13,3.14.4,4.85.09.41.15.86.29,1.25.06.21.13.4.23.54.06.16.22.32.37.48.59.64,1.36,1.17,2.21,1.61,1.7.87,3.71,1.39,5.81,1.66,2.1.28,4.32.3,6.56.03,2.23-.27,4.38-.84,6.19-1.85.9-.51,1.7-1.14,2.28-1.9.15-.19.26-.4.4-.59.1-.21.21-.42.29-.63.03-.21.11-.38.12-.63l.05-.71c-.03-3.9-.62-7.48-1.01-10.45-.43-2.98-.83-5.38-1.1-7.04-.27-1.66-.46-2.57-.39-2.59Z"/><path class="cls-9" d="M151.11,94.64s-.24.15-.72.34c-.23.11-.54.19-.89.28-.35.1-.75.2-1.2.28-1.79.34-4.32.52-7.08.34-2.77-.16-5.25-.64-6.99-1.2-.87-.27-1.54-.6-1.99-.86-.43-.3-.63-.49-.61-.51.02-.03.27.1.71.33.46.2,1.13.46,2,.68,1.73.46,4.18.87,6.92,1.03,2.73.18,5.22.06,6.99-.18,1.78-.23,2.83-.63,2.86-.54Z"/><path class="cls-9" d="M147.89,92.66c-.03-.15,2.3-.62,5-1.68,2.71-1.04,4.74-2.26,4.83-2.13.08.11-1.87,1.55-4.64,2.61-2.76,1.08-5.18,1.33-5.19,1.2Z"/><path class="cls-9" d="M144.92,89.88c.04.13-2.88.8-6.52.64-3.65-.11-6.49-1.06-6.44-1.19.04-.14,2.88.56,6.46.68,3.58.16,6.48-.27,6.5-.12Z"/><path class="cls-9" d="M145.42,87.7c.01-.13,2.57,0,5.67-.5,1.55-.23,2.93-.56,3.9-.87.97-.31,1.48-.68,1.54-.62.05.04-.42.55-1.4.96-.97.42-2.37.81-3.95,1.04-3.16.51-5.78.15-5.75-.01Z"/><path class="cls-9" d="M140.25,86.7c.02.13-1.85.46-4.15.29-2.31-.16-4.11-.74-4.07-.87.04-.15,1.85.2,4.11.35,2.26.17,4.1.08,4.12.23Z"/><path class="cls-9" d="M138.13,83.22c.03-.09,1,.23,2.62.44,1.62.21,3.89.31,6.38.1,2.49-.19,4.72-.61,6.31-1.02,1.59-.39,2.5-.85,2.54-.78.03.05-.84.64-2.44,1.13-1.58.5-3.84.99-6.37,1.18-2.53.22-4.84.05-6.48-.25-.82-.16-1.47-.33-1.91-.5-.44-.16-.67-.27-.66-.3Z"/><path class="cls-1" d="M81.21,158.81c.11,0,.34.98.39,2.62,0,.82-.01,1.82-.35,2.92-.16.55-.44,1.12-.88,1.62-.43.51-1.12.87-1.81.95-.7.11-1.42-.02-2.01-.32-.58-.31-1.04-.73-1.41-1.16-.72-.89-1.13-1.82-1.38-2.62-.49-1.61-.27-2.69-.17-2.67.14,0,.15,1,.76,2.45.3.72.74,1.55,1.4,2.29.34.36.73.69,1.18.92.46.22.97.3,1.49.22,1.08-.1,1.72-1.03,2.05-1.95.34-.94.43-1.89.5-2.68.12-1.59.1-2.6.24-2.61Z"/><path class="cls-1" d="M103.86,168.76c.11-.02.43.71.62,2.01.08.65.12,1.47-.21,2.36-.32.9-1.21,1.74-2.37,1.88-1.19.17-2.26-.63-2.64-1.5-.42-.88-.39-1.71-.38-2.34.1-1.28.1-2.02.21-2.05.13-.04.35.78.41,2.04.05.61.12,1.35.47,1.98.33.63,1.04,1.1,1.81,1,.78-.1,1.45-.66,1.72-1.32.3-.67.34-1.4.34-2.01-.02-1.23-.12-2.02.01-2.05Z"/><path class="cls-1" d="M99.46,189.76c.1,0,.41,1.18.47,3.19,0,1-.08,2.24-.66,3.52-.58,1.24-1.67,2.52-3.32,2.99-.81.22-1.69.17-2.42-.13-.74-.28-1.35-.75-1.81-1.27-.95-1.06-1.31-2.33-1.41-3.33-.17-2.05.3-3.24.38-3.22.16.01-.07,1.25.24,3.13.17.92.55,2,1.39,2.87.81.87,2.11,1.47,3.4,1.1,1.29-.35,2.27-1.42,2.81-2.49.54-1.08.7-2.24.77-3.19.1-1.93,0-3.16.15-3.17Z"/><path class="cls-1" d="M118.37,185.11s.51.5.43,1.58c-.04.52-.24,1.14-.66,1.7-.41.56-1.1,1.07-1.95,1.17-.86.09-1.64-.28-2.15-.76-.52-.48-.82-1.06-.93-1.58-.23-1.07.25-1.66.28-1.61.1.03-.18.62.12,1.49.14.43.44.9.89,1.28.45.38,1.07.64,1.72.58.65-.08,1.21-.46,1.58-.92.38-.46.59-.98.67-1.42.18-.91-.11-1.48-.01-1.52Z"/><path class="cls-1" d="M84.34,209.87c.1-.01.47,1.32.6,3.56.02.56.03,1.18-.06,1.86-.07.67-.26,1.41-.67,2.11-.4.71-1.12,1.3-1.93,1.61-.81.32-1.68.45-2.55.48-.91.07-1.9-.25-2.57-.8-.7-.53-1.19-1.21-1.56-1.87-.76-1.33-1.09-2.66-1.27-3.78-.37-2.25.07-3.65.16-3.62.15.02-.05,1.38.45,3.5.25,1.05.64,2.29,1.36,3.48.69,1.19,1.87,2.33,3.39,2.2,1.62-.04,3.15-.49,3.82-1.63.69-1.12.75-2.47.8-3.54.04-2.18-.12-3.55.03-3.57Z"/><path class="cls-1" d="M71.38,182.99c.09-.05.45.46.27,1.36-.09.44-.33.94-.76,1.37-.42.43-1.06.79-1.81.8-.75,0-1.4-.33-1.83-.75-.44-.42-.69-.91-.8-1.35-.21-.9.13-1.42.22-1.37.14.03.06.53.37,1.16.27.62,1.05,1.42,2.02,1.42.97-.02,1.73-.85,1.98-1.48.29-.65.2-1.14.33-1.18Z"/><path class="cls-1" d="M116.45,214.65c.06,0,.17.5.28,1.44.1.93.17,2.29.13,3.98-.06,1.68-.2,3.69-.71,5.88-.25,1.07-.62,2.31-1.49,3.3-.83,1.02-2.15,1.66-3.53,1.78-1.39.09-2.75-.36-3.77-1.15-1.03-.79-1.71-1.89-2.15-2.93-.9-2.11-1.1-4.17-1.16-5.84-.04-1.69.07-3.04.18-3.97.11-.93.22-1.44.28-1.43.16,0-.04,2.08.17,5.38.14,1.63.4,3.6,1.28,5.55.44.97,1.04,1.89,1.93,2.56.88.66,2.03,1.02,3.19.96,1.15-.1,2.24-.62,2.94-1.46.73-.83,1.08-1.87,1.35-2.93.54-2.1.75-4.07.88-5.71.24-3.31.08-5.37.21-5.38Z"/><path class="cls-1" d="M73.37,237.35s.17,0,.34.17c.18.17.33.53.3.98-.04.44-.24.94-.64,1.36-.39.41-1.04.77-1.78.67-.68-.08-1.25-.45-1.62-.86-.38-.41-.59-.85-.72-1.23-.25-.77-.15-1.27-.04-1.27.13-.02.26.43.61,1.02.34.57.98,1.35,1.88,1.46.82.12,1.54-.71,1.69-1.25.18-.58-.13-.96-.02-1.05Z"/><path class="cls-1" d="M140.24,170.11c.1-.01.53,1.35.75,3.68.09,1.16.08,2.6-.44,4.13-.55,1.5-1.66,3.06-3.44,3.83-.88.38-1.88.48-2.76.28-.89-.19-1.66-.61-2.3-1.09-1.28-.97-2.12-2.16-2.64-3.23-1.03-2.17-.86-3.7-.78-3.69.16-.03.23,1.45,1.33,3.39.55.96,1.39,2.02,2.56,2.86.58.41,1.26.75,1.99.9.73.15,1.51.07,2.24-.24,1.47-.63,2.5-1.99,3.02-3.3.5-1.35.59-2.7.58-3.82-.06-2.26-.27-3.69-.12-3.71Z"/><path class="cls-1" d="M124.64,157.66c.11,0,.34.98.39,2.62,0,.82-.01,1.82-.35,2.92-.16.55-.44,1.12-.88,1.62-.43.51-1.12.87-1.81.95-.7.11-1.42-.02-2.01-.32-.58-.31-1.04-.73-1.41-1.16-.72-.89-1.13-1.82-1.38-2.62-.49-1.61-.27-2.69-.17-2.67.14,0,.15,1,.76,2.45.3.72.74,1.55,1.4,2.29.34.36.73.69,1.18.92.46.22.97.3,1.49.22,1.08-.1,1.72-1.03,2.05-1.95.34-.94.43-1.89.5-2.68.12-1.59.1-2.6.24-2.61Z"/><path class="cls-1" d="M175.03,242.89c.11-.02.43.71.62,2.01.08.65.12,1.47-.21,2.36-.32.9-1.21,1.74-2.37,1.88-1.19.17-2.26-.63-2.64-1.5-.42-.88-.39-1.71-.38-2.34.1-1.28.1-2.02.21-2.05.13-.04.35.78.41,2.04.05.61.12,1.35.47,1.98.33.63,1.04,1.1,1.81,1,.78-.1,1.45-.66,1.72-1.32.3-.67.34-1.4.34-2.01-.02-1.23-.12-2.02.01-2.05Z"/><path class="cls-1" d="M96.87,231.65c.1,0,.41,1.18.47,3.19,0,1-.08,2.24-.66,3.52-.58,1.24-1.67,2.52-3.32,2.99-.81.22-1.69.17-2.42-.13-.74-.28-1.35-.75-1.81-1.27-.95-1.06-1.31-2.33-1.41-3.33-.17-2.05.3-3.24.38-3.22.16.01-.07,1.25.24,3.13.17.92.55,2,1.39,2.87.81.87,2.11,1.47,3.4,1.1,1.29-.35,2.27-1.42,2.81-2.49.54-1.08.7-2.24.77-3.19.1-1.93,0-3.16.15-3.17Z"/><path class="cls-1" d="M98.81,151.67c.07-.07.59.48.53,1.59-.03.54-.22,1.18-.65,1.77-.42.59-1.14,1.12-2.04,1.23-.91.09-1.73-.3-2.25-.8-.53-.51-.84-1.11-.94-1.65-.22-1.12.32-1.71.38-1.64.14.05-.1.64.22,1.47.15.41.45.85.88,1.21.43.36,1.02.59,1.61.53,1.24-.16,2.01-1.37,2.17-2.21.2-.87-.04-1.45.09-1.5Z"/><path class="cls-1" d="M191.66,202.18c.1-.01.47,1.32.6,3.56.02.56.03,1.18-.06,1.86-.07.67-.26,1.41-.67,2.11-.4.71-1.12,1.3-1.93,1.61-.81.32-1.68.45-2.55.48-.91.06-1.9-.25-2.57-.8-.7-.53-1.19-1.21-1.56-1.87-.76-1.33-1.09-2.66-1.27-3.78-.37-2.25.07-3.65.16-3.62.15.02-.05,1.38.45,3.5.25,1.05.64,2.29,1.36,3.48.69,1.19,1.87,2.33,3.39,2.2,1.62-.04,3.15-.49,3.82-1.63.69-1.12.75-2.47.8-3.54.04-2.18-.12-3.55.03-3.57Z"/><path class="cls-1" d="M115.02,241.12c.09-.05.45.46.27,1.36-.09.44-.33.94-.76,1.37-.42.43-1.06.79-1.81.8-.75,0-1.4-.33-1.83-.75-.44-.42-.69-.91-.8-1.35-.21-.9.13-1.42.22-1.37.14.03.06.53.37,1.17.27.62,1.05,1.42,2.02,1.42.97-.02,1.73-.85,1.98-1.48.29-.65.2-1.14.33-1.18Z"/><path class="cls-1" d="M169.41,187.25c.06,0,.17.5.28,1.44.1.93.17,2.29.13,3.98-.06,1.68-.2,3.69-.71,5.88-.25,1.07-.62,2.31-1.49,3.3-.83,1.02-2.15,1.66-3.53,1.78-1.39.09-2.75-.36-3.77-1.15-1.03-.79-1.71-1.89-2.15-2.93-.9-2.11-1.1-4.17-1.16-5.84-.04-1.69.07-3.04.18-3.98.11-.93.22-1.44.28-1.43.16,0-.04,2.08.17,5.38.14,1.63.4,3.6,1.28,5.55.44.97,1.04,1.89,1.93,2.56.88.66,2.03,1.02,3.19.96,1.15-.1,2.24-.62,2.94-1.46.73-.83,1.08-1.87,1.35-2.93.54-2.1.75-4.07.88-5.71.24-3.31.08-5.37.21-5.38Z"/><path class="cls-1" d="M163.33,167.4s.17,0,.34.17c.18.17.33.53.3.98-.04.44-.24.94-.64,1.36-.39.41-1.04.77-1.78.67-.68-.08-1.25-.45-1.62-.86-.38-.41-.59-.85-.72-1.23-.25-.77-.15-1.27-.04-1.27.13-.02.26.43.61,1.02.34.57.98,1.35,1.88,1.46.82.12,1.54-.7,1.69-1.25.18-.58-.13-.96-.02-1.05Z"/><path class="cls-1" d="M137.69,249.58c.1,0,.31,1.42.16,3.75-.1,1.16-.34,2.58-1.09,4.01-.78,1.39-2.12,2.76-4,3.24-.93.24-1.93.17-2.77-.16-.85-.33-1.54-.87-2.1-1.44-1.11-1.16-1.75-2.47-2.09-3.6-.68-2.3-.27-3.79-.19-3.76.16,0,0,1.46.78,3.56.39,1.03,1.05,2.22,2.08,3.23.51.5,1.13.94,1.83,1.2.7.27,1.48.31,2.25.12,1.56-.39,2.78-1.57,3.5-2.78.71-1.25,1.01-2.57,1.18-3.68.3-2.24.32-3.69.47-3.68Z"/><path class="cls-1" d="M199.47,164.48c.06,0,.17.5.28,1.44.1.93.17,2.29.13,3.98-.06,1.68-.2,3.69-.71,5.88-.25,1.07-.62,2.31-1.49,3.3-.83,1.02-2.15,1.66-3.53,1.78-1.39.09-2.75-.36-3.77-1.15-1.03-.79-1.71-1.89-2.15-2.93-.9-2.11-1.1-4.17-1.16-5.84-.04-1.69.07-3.04.18-3.97.11-.93.22-1.44.28-1.43.16,0-.04,2.08.17,5.38.14,1.63.4,3.6,1.28,5.55.44.97,1.04,1.89,1.93,2.56.88.66,2.03,1.02,3.19.96,1.15-.1,2.24-.62,2.94-1.46.73-.83,1.08-1.87,1.35-2.93.54-2.1.74-4.07.88-5.71.24-3.31.08-5.37.21-5.38Z"/><path class="cls-1" d="M214.76,185.85c.1,0,.41,1.18.47,3.19,0,1-.08,2.24-.66,3.52-.58,1.24-1.67,2.52-3.32,2.99-.81.22-1.69.17-2.42-.13-.74-.28-1.35-.75-1.81-1.27-.95-1.06-1.31-2.33-1.41-3.33-.17-2.05.3-3.24.38-3.22.16.01-.07,1.25.24,3.13.17.92.55,2,1.39,2.87.81.87,2.11,1.47,3.4,1.1,1.29-.35,2.27-1.42,2.81-2.49.54-1.08.7-2.24.77-3.19.1-1.93,0-3.16.15-3.17Z"/><path class="cls-1" d="M227.25,239.78c.1,0,.41,1.18.47,3.19,0,1-.08,2.24-.66,3.52-.58,1.24-1.67,2.52-3.32,2.99-.81.22-1.69.17-2.42-.13-.74-.28-1.35-.75-1.81-1.27-.95-1.06-1.31-2.33-1.41-3.33-.17-2.05.3-3.24.38-3.22.16.01-.07,1.25.24,3.13.17.92.55,2,1.39,2.87.81.87,2.11,1.47,3.4,1.1,1.29-.35,2.27-1.42,2.81-2.49.54-1.08.7-2.24.77-3.19.1-1.93,0-3.16.15-3.17Z"/><path class="cls-1" d="M195.67,223.82c.1-.01.53,1.35.75,3.68.09,1.16.08,2.6-.44,4.13-.55,1.5-1.66,3.06-3.44,3.83-.88.38-1.88.48-2.77.28-.89-.19-1.66-.61-2.3-1.09-1.28-.97-2.12-2.16-2.64-3.23-1.03-2.17-.86-3.7-.78-3.69.16-.03.23,1.45,1.33,3.39.55.96,1.39,2.02,2.56,2.86.58.41,1.26.75,1.99.9.73.15,1.51.07,2.24-.24,1.47-.63,2.5-1.99,3.02-3.3.5-1.35.59-2.7.58-3.82-.06-2.26-.27-3.69-.12-3.71Z"/><path class="cls-1" d="M166.97,218.41c.11-.02.43.71.62,2.01.08.65.12,1.47-.21,2.36-.32.9-1.21,1.74-2.37,1.88-1.19.17-2.26-.63-2.64-1.5-.42-.88-.39-1.71-.38-2.34.1-1.28.1-2.02.21-2.05.13-.04.35.78.41,2.04.05.61.12,1.35.47,1.98.33.63,1.04,1.1,1.81,1,.78-.1,1.45-.66,1.72-1.32.3-.67.34-1.4.34-2.01-.02-1.23-.12-2.02.01-2.05Z"/><path class="cls-1" d="M150.18,224.06c.06,0,.17.5.28,1.44.1.93.17,2.29.13,3.98-.06,1.68-.2,3.69-.71,5.88-.25,1.07-.62,2.31-1.49,3.3-.83,1.02-2.15,1.66-3.53,1.78-1.39.09-2.75-.36-3.77-1.15-1.03-.79-1.71-1.89-2.15-2.93-.9-2.11-1.1-4.17-1.16-5.84-.04-1.69.07-3.04.18-3.97.11-.93.22-1.44.28-1.43.16,0-.04,2.08.17,5.38.14,1.63.4,3.6,1.28,5.55.44.97,1.04,1.89,1.93,2.56.88.66,2.03,1.02,3.19.96,1.15-.1,2.24-.62,2.94-1.46.73-.83,1.08-1.87,1.35-2.93.54-2.1.75-4.07.88-5.71.24-3.31.08-5.37.21-5.38Z"/><path class="cls-1" d="M223.08,151.1c.06,0,.21.49.38,1.41.17.92.33,2.28.41,3.96.06,1.68.06,3.69-.31,5.92-.18,1.08-.46,2.34-1.26,3.4-.76,1.07-2.03,1.8-3.4,2.02-1.38.18-2.76-.17-3.84-.88-1.09-.72-1.84-1.77-2.35-2.77-1.04-2.04-1.39-4.08-1.56-5.75-.16-1.68-.14-3.04-.09-3.98.05-.94.12-1.45.18-1.45.16,0,.11,2.08.54,5.35.25,1.62.65,3.57,1.66,5.44.51.94,1.17,1.82,2.1,2.42.93.6,2.1.88,3.24.73,1.14-.18,2.19-.77,2.83-1.66.67-.87.94-1.94,1.14-3.01.39-2.13.46-4.11.48-5.76.01-3.32-.29-5.36-.16-5.38Z"/><path class="cls-1" d="M214.4,211.75s.17,0,.34.17c.18.17.33.53.3.98-.04.44-.24.94-.64,1.36-.39.41-1.04.77-1.78.67-.68-.08-1.25-.45-1.62-.86-.38-.41-.59-.85-.72-1.23-.25-.77-.15-1.27-.04-1.27.13-.02.26.43.61,1.02.34.57.98,1.35,1.88,1.46.82.12,1.54-.7,1.69-1.25.18-.58-.13-.96-.02-1.05Z"/><path class="cls-1" d="M134.82,202.6c.1,0,.41,1.18.47,3.19,0,1-.08,2.24-.66,3.52-.58,1.24-1.67,2.52-3.32,2.99-.81.22-1.69.17-2.42-.13-.74-.28-1.35-.75-1.81-1.27-.95-1.06-1.31-2.33-1.41-3.33-.17-2.05.3-3.24.38-3.22.16.01-.07,1.25.24,3.13.17.92.55,2,1.39,2.87.81.87,2.11,1.47,3.4,1.1,1.29-.35,2.27-1.42,2.81-2.49.54-1.08.7-2.24.77-3.19.1-1.93,0-3.16.15-3.17Z"/><path class="cls-1" d="M93.21,157.17c-.04.07-.31,0-.68-.26-.36-.26-.79-.74-1.05-1.38-.26-.64-.28-1.28-.2-1.72.08-.44.24-.68.31-.65.16.04-.03,1.05.44,2.15.43,1.12,1.27,1.71,1.18,1.86Z"/><path class="cls-1" d="M106.47,174.96c-.14-.1.63-1.2.82-2.77.22-1.56-.23-2.82-.07-2.88.13-.09.9,1.21.65,2.96-.22,1.76-1.31,2.81-1.41,2.69Z"/><path class="cls-1" d="M98.73,176.38c-.1.12-1.11-.65-1.67-2.08-.57-1.42-.36-2.68-.21-2.66.17,0,.24,1.16.75,2.44.5,1.29,1.24,2.17,1.12,2.29Z"/><path class="cls-1" d="M100.74,198.5c-.13-.12.92-1.23,1.33-2.98.45-1.74.03-3.21.2-3.26.07-.02.28.32.42.94.14.62.18,1.52-.05,2.47-.24.95-.69,1.73-1.1,2.21-.41.48-.76.69-.81.64Z"/><path class="cls-1" d="M90.57,199.83c-.03.07-.37.02-.85-.24-.48-.26-1.08-.76-1.54-1.46-.45-.71-.66-1.47-.69-2.01-.03-.55.07-.88.14-.87.17,0,.21,1.29,1.05,2.57.81,1.29,1.97,1.87,1.9,2.02Z"/><path class="cls-1" d="M75.65,169.09c-.01.07-.43.08-1.05-.14-.62-.21-1.43-.69-2.1-1.45-.67-.76-1.04-1.63-1.17-2.27-.14-.65-.08-1.05,0-1.06.17-.03.37,1.55,1.62,2.94,1.21,1.41,2.76,1.82,2.71,1.99Z"/><path class="cls-1" d="M83.71,168.05c-.15-.09.5-1.3.66-2.94.18-1.63-.22-2.95-.05-3.01.13-.08.83,1.27.64,3.07-.17,1.8-1.13,2.98-1.24,2.88Z"/><path class="cls-1" d="M72.15,187.55c-.1-.14.82-.88,1.45-2.13.65-1.24.71-2.42.88-2.42.15-.03.37,1.29-.36,2.69-.71,1.41-1.92,2-1.98,1.86Z"/><path class="cls-1" d="M67.34,189.23c-.02.07-.34.06-.81-.15-.47-.21-1.05-.65-1.49-1.31-.44-.66-.62-1.37-.63-1.88-.02-.51.1-.82.17-.81.17,0,.16,1.21.95,2.36.76,1.17,1.87,1.63,1.81,1.79Z"/><path class="cls-1" d="M73.81,220.13c-.07.13-1.6-.82-2.61-2.71-1.03-1.88-.99-3.68-.84-3.66.18-.02.4,1.63,1.36,3.38.94,1.77,2.2,2.86,2.09,2.99Z"/><path class="cls-1" d="M87.63,220.62c-.16-.07.54-1.71.6-3.86.08-2.14-.51-3.83-.35-3.89.13-.08,1.02,1.61.94,3.91-.06,2.29-1.07,3.93-1.19,3.84Z"/><path class="cls-1" d="M69.41,241.23c-.05.15-1.2-.25-1.96-1.47-.77-1.21-.63-2.43-.47-2.4.17,0,.3,1.04.97,2.09.65,1.06,1.54,1.63,1.46,1.79Z"/><path class="cls-1" d="M74.78,241.51c-.09-.14.53-.68.92-1.56.42-.87.43-1.69.59-1.71.15-.05.43.91-.06,1.96-.48,1.05-1.39,1.46-1.46,1.31Z"/><path class="cls-1" d="M118.68,166.6c0,.16-1.61,0-3-1.31-1.4-1.29-1.68-2.88-1.52-2.89.17-.06.66,1.3,1.92,2.46,1.24,1.18,2.64,1.57,2.59,1.74Z"/><path class="cls-1" d="M127.82,165.44c-.16-.06.27-1.37.2-3.02-.05-1.65-.57-2.93-.41-3,.13-.09.95,1.18,1.01,2.98.07,1.8-.66,3.12-.8,3.04Z"/><path class="cls-1" d="M87.65,241.52c-.12.1-.95-.8-1.56-2.16-.61-1.36-.73-2.57-.57-2.6.16-.04.53,1.07,1.11,2.36.57,1.29,1.15,2.3,1.02,2.4Z"/><path class="cls-1" d="M138.3,258.46c-.14-.11.69-1.27,1.15-2.92.48-1.64.4-3.07.57-3.09.15-.04.52,1.47,0,3.25-.5,1.79-1.61,2.87-1.71,2.76Z"/><path class="cls-1" d="M125.67,262.06c-.05.14-1.63-.64-2.63-2.48-1.01-1.82-.84-3.57-.69-3.54.18,0,.27,1.59,1.2,3.26.91,1.68,2.21,2.62,2.11,2.76Z"/><path class="cls-1" d="M99.21,236.46c.07,0,.19.41.16,1.1-.03.69-.25,1.65-.77,2.57-.53.93-1.23,1.61-1.81,1.99-.58.38-.99.5-1.03.43-.09-.15,1.36-.98,2.32-2.71.99-1.71.96-3.39,1.13-3.39Z"/><path class="cls-1" d="M107.05,231.65c-.02.06-.71-.1-1.67-.69-.96-.58-2.13-1.67-2.98-3.18-.84-1.51-1.15-3.08-1.15-4.2,0-1.13.22-1.79.28-1.78.1.01.02.69.13,1.76.1,1.06.46,2.51,1.25,3.94.8,1.42,1.85,2.48,2.7,3.12.85.65,1.47.94,1.43,1.03Z"/><path class="cls-1" d="M120.12,220.33c.14-.05.67,2.62-.35,5.71-.99,3.1-2.98,4.95-3.06,4.83-.15-.11,1.56-2.05,2.5-5.01.98-2.95.72-5.52.91-5.53Z"/><path class="cls-1" d="M113.58,190.21c-.06.15-.98-.17-1.63-1.11-.65-.94-.62-1.92-.46-1.92.17-.02.38.78.95,1.58.55.81,1.22,1.3,1.14,1.45Z"/><path class="cls-1" d="M118.93,190.11c-.13-.12.36-.81.69-1.75.35-.94.43-1.77.6-1.78.15-.02.35.92-.04,1.99-.39,1.07-1.14,1.66-1.25,1.55Z"/><path class="cls-1" d="M131.56,183.48c-.01.07-.54.04-1.32-.27-.78-.3-1.79-.94-2.63-1.93-.84-.99-1.31-2.09-1.48-2.9-.18-.82-.12-1.34-.06-1.35.17-.04.39,2.03,1.99,3.87,1.56,1.87,3.57,2.41,3.5,2.58Z"/><path class="cls-1" d="M142,180.92c-.14-.11,1.15-1.45,1.45-3.6.35-2.14-.48-3.8-.32-3.87.06-.03.37.33.63,1.04.27.7.44,1.77.27,2.92-.18,1.15-.66,2.11-1.13,2.71-.47.6-.87.85-.91.8Z"/><path class="cls-1" d="M126.71,212.36c-.03.07-.45,0-1.04-.34-.59-.33-1.32-.96-1.87-1.85-.55-.89-.78-1.83-.81-2.5-.03-.68.09-1.09.16-1.08.17,0,.12,1.64,1.15,3.27.99,1.65,2.49,2.34,2.41,2.49Z"/><path class="cls-1" d="M136.54,211.93c-.16-.07.3-1.34.56-2.96.27-1.62.24-2.97.41-2.98.15-.03.46,1.37.17,3.08-.27,1.71-1,2.94-1.14,2.86Z"/><path class="cls-1" d="M110.04,245.4c-.09.13-.98-.4-1.61-1.46-.64-1.06-.69-2.08-.53-2.1.17-.03.46.85,1.04,1.8.57.96,1.21,1.63,1.1,1.76Z"/><path class="cls-1" d="M115.98,245.98c-.12-.13.44-.78.75-1.73.33-.95.29-1.8.46-1.83.15-.05.48.9.1,2.02-.38,1.12-1.22,1.67-1.31,1.54Z"/><path class="cls-1" d="M138.57,240.47c-.05.05-.58-.31-1.27-1.09-.69-.78-1.47-2.01-1.97-3.53-.49-1.52-.58-2.98-.48-4.01.09-1.04.32-1.64.38-1.63.18.02-.31,2.55.66,5.46.92,2.92,2.82,4.68,2.68,4.8Z"/><path class="cls-1" d="M152.28,239.5c-.17-.07.66-1.97.82-4.46.19-2.49-.37-4.48-.19-4.53.13-.07.98,1.95.78,4.57-.17,2.62-1.28,4.5-1.41,4.42Z"/><path class="cls-1" d="M161.98,225.41c-.09.13-1.04-.44-1.66-1.62-.63-1.17-.57-2.28-.41-2.28.17-.02.37.96.93,2,.55,1.05,1.24,1.76,1.13,1.89Z"/><path class="cls-1" d="M169.59,224.56c-.16-.07.14-.97.24-2.11.12-1.13,0-2.08.17-2.12.15-.05.54.92.42,2.17-.12,1.25-.69,2.13-.83,2.05Z"/><path class="cls-1" d="M157.3,204.42c-.05.05-.53-.3-1.13-1.04-.6-.73-1.3-1.88-1.75-3.26-.45-1.39-.55-2.72-.49-3.67.06-.95.24-1.51.31-1.5.18.01-.14,2.34.73,4.99.84,2.67,2.46,4.36,2.32,4.48Z"/><path class="cls-1" d="M171.29,203.03c-.16-.09.81-1.79,1.26-4.11.48-2.31.25-4.25.43-4.27.14-.04.65,1.95.15,4.39-.48,2.44-1.73,4.08-1.84,3.99Z"/><path class="cls-1" d="M159.02,173.12c-.07.14-1.23-.45-1.88-1.84-.67-1.38-.4-2.66-.25-2.62.17,0,.19,1.15.79,2.36.57,1.22,1.45,1.95,1.35,2.09Z"/><path class="cls-1" d="M164.58,171.92c-.15-.1.45-1.04.94-2.23.53-1.19.27-2.22.42-2.28.07-.03.26.21.36.68.1.47.04,1.16-.22,1.82-.55,1.32-1.38,2.1-1.49,2.02Z"/><path class="cls-1" d="M186.52,179.69c-.13.08-1.31-1.8-1.82-4.44-.53-2.64-.16-4.83,0-4.8.18.01.07,2.14.59,4.68.49,2.55,1.4,4.48,1.24,4.56Z"/><path class="cls-1" d="M199.91,182.1c-.16-.09.84-1.85,1.25-4.25.44-2.39.12-4.39.3-4.42.14-.05.75,1.99.28,4.52-.44,2.53-1.72,4.24-1.83,4.15Z"/><path class="cls-1" d="M182.95,212.48c-.05.14-1.46-.46-2.49-1.96-1.04-1.49-1.1-3.02-.95-3.02.17-.03.48,1.32,1.44,2.68.93,1.37,2.09,2.14,2,2.29Z"/><path class="cls-1" d="M195.24,211.41c-.17-.06.36-1.5.2-3.31-.13-1.81-.87-3.15-.71-3.24.11-.1,1.16,1.21,1.3,3.19.16,1.98-.67,3.44-.79,3.35Z"/><path class="cls-1" d="M204.06,195.57c-.1.12-1.2-.89-1.72-2.59-.53-1.7-.17-3.15-.03-3.11.17.02.1,1.38.59,2.94.47,1.56,1.29,2.65,1.15,2.77Z"/><path class="cls-1" d="M216.73,194.98c-.16-.06.25-1.36.29-2.99.06-1.64-.26-2.95-.1-3.01.14-.06.75,1.27.69,3.02-.05,1.76-.74,3.05-.88,2.98Z"/><path class="cls-1" d="M212.17,168.06c-.07.13-2.14-1.49-3.28-4.4-1.18-2.9-.8-5.49-.66-5.45.18,0,.08,2.48,1.21,5.23,1.08,2.77,2.87,4.5,2.73,4.62Z"/><path class="cls-1" d="M225.37,165.1c-.17-.05.27-1.82.3-4.03.05-2.21-.31-3.99-.14-4.04.14-.05.78,1.74.73,4.05-.04,2.31-.75,4.07-.89,4.02Z"/><path class="cls-1" d="M209.7,216.2c-.11.11-.99-.78-1.31-2.24-.34-1.45.07-2.64.21-2.59.17.03.05,1.15.36,2.46.29,1.31.88,2.27.74,2.37Z"/><path class="cls-1" d="M216.65,216.45c-.15-.08.29-1.08.52-2.38.24-1.29.19-2.38.36-2.41.15-.04.49,1.1.23,2.51-.25,1.41-.97,2.36-1.1,2.27Z"/><path class="cls-1" d="M184.72,237.63c-.13.09-1.13-1.23-2-3.05-.87-1.82-1.26-3.42-1.11-3.47.16-.05.79,1.43,1.64,3.22.85,1.79,1.6,3.21,1.46,3.3Z"/><path class="cls-1" d="M198.05,234.33c-.16-.07.43-1.59.77-3.54.36-1.95.33-3.58.51-3.59.15-.02.45,1.65.08,3.69-.36,2.04-1.22,3.51-1.35,3.44Z"/><path class="cls-1" d="M168.85,251.1c-.04.06-.38-.06-.81-.44-.43-.38-.91-1.04-1.17-1.88-.26-.84-.24-1.66-.1-2.21.13-.56.34-.85.41-.82.16.05-.23,1.35.26,2.86.45,1.52,1.52,2.36,1.41,2.5Z"/><path class="cls-1" d="M177.54,250.2c-.15-.09.39-1.2.54-2.67.17-1.47-.13-2.66.04-2.72.14-.07.73,1.16.55,2.78-.17,1.62-1.01,2.7-1.13,2.6Z"/><path class="cls-1" d="M216.08,248.38c-.13.08-.92-1.05-1.27-2.69-.37-1.63-.13-2.99.02-2.97.17,0,.21,1.31.56,2.84.33,1.54.85,2.73.7,2.81Z"/><path class="cls-1" d="M228.65,250.52c-.16-.08.81-1.93,1.16-4.41.38-2.48-.01-4.52.16-4.56.14-.06.82,2.03.42,4.64-.37,2.62-1.63,4.42-1.75,4.33Z"/><path class="cls-1" d="M190.78,266.32c.03.08-1.14.55-3.27,1.35-1.07.39-2.41.77-3.96,1.26-1.55.47-3.35.88-5.32,1.38-3.98.85-8.76,1.78-14.11,2.36-5.35.58-11.27,1.01-17.48.99-12.43,0-23.65-1.5-31.6-3.25-3.96-.93-7.16-1.72-9.32-2.46-2.17-.68-3.36-1.1-3.33-1.18.02-.08,1.26.19,3.46.73,2.19.6,5.4,1.26,9.36,2.08,7.95,1.53,19.09,2.88,31.43,2.89,6.17.02,12.04-.37,17.37-.89,5.33-.51,10.08-1.35,14.06-2.09,1.97-.45,3.77-.8,5.33-1.2,1.55-.42,2.91-.73,3.99-1.06,2.17-.66,3.38-.99,3.41-.91Z"/><path class="cls-5" d="M149.98,130.82c-.1.14-1.9-1.45-5.45-2.78-3.51-1.34-8.75-2.26-14.48-1.7-2.86.24-5.55.86-7.92,1.61-2.37.75-4.39,1.75-5.83,2.93-1.47,1.15-2.37,2.4-2.96,3.27-.59.88-.85,1.41-.93,1.37-.04-.02.12-.6.63-1.55.51-.94,1.36-2.3,2.85-3.58,1.46-1.3,3.56-2.41,5.97-3.22,2.41-.81,5.16-1.46,8.09-1.71,5.87-.57,11.26.48,14.8,2,1.79.73,3.1,1.62,3.98,2.23.84.68,1.27,1.08,1.24,1.13Z"/><path class="cls-5" d="M188.57,134.32c-.14.11-1.46-2.11-4.73-4.45-3.24-2.33-8.41-4.75-14.48-5.54-6.07-.79-11.67.56-15.2,2.38-3.59,1.82-5.18,3.87-5.3,3.73-.03-.03.31-.56,1.12-1.38.8-.82,2.08-1.91,3.89-2.91,3.57-2.02,9.34-3.52,15.61-2.7,6.25.81,11.51,3.39,14.74,5.92,1.62,1.27,2.75,2.51,3.44,3.43.67.93.96,1.5.92,1.52Z"/><path class="cls-4" d="M114.88,107.59c.05,0,.12.57.04,1.59-.09,1.01-.31,2.5-1.05,4.21-.37.84-.89,1.76-1.73,2.54-.81.8-2.05,1.3-3.3,1.36-1.26.08-2.49-.07-3.8-.14-1.3-.1-2.66-.26-4.03-.53-2.72-.55-5.38-1.51-7.15-3.35-.4-.46-.83-.97-1.04-1.56-.24-.56-.36-1.13-.45-1.67-.16-1.09-.14-2.1-.09-3.01.13-1.83.41-3.27.63-4.26.23-.99.4-1.52.46-1.51.06.01,0,.57-.12,1.57-.12,1-.3,2.44-.35,4.22-.01.89.01,1.86.19,2.87.18,1.02.54,1.99,1.36,2.78,1.6,1.61,4.1,2.52,6.73,3.05,1.33.26,2.65.42,3.93.53,1.28.09,2.55.25,3.67.2,1.13-.04,2.12-.42,2.86-1.1.75-.65,1.26-1.47,1.65-2.25.77-1.58,1.08-3.02,1.27-3.99.19-.98.24-1.54.3-1.54Z"/><path class="cls-4" d="M148.25,110.87c.06,0,.08.58,0,1.62-.12,1.04-.25,2.54-.91,4.35-.34.89-.96,1.85-1.92,2.53-.94.7-2.14,1.09-3.39,1.28-1.25.19-2.57.18-3.92.09-1.33-.09-2.71-.22-4.12-.39s-2.78-.38-4.09-.61c-1.32-.23-2.6-.5-3.79-.91-1.19-.4-2.29-.95-3.18-1.66-.9-.7-1.56-1.57-2-2.43-.87-1.74-.95-3.32-.96-4.35,0-1.05.12-1.62.17-1.62.07,0,.07.58.17,1.6.11,1.01.3,2.51,1.17,4.07.44.77,1.06,1.53,1.89,2.15.83.63,1.85,1.1,2.98,1.47,2.27.7,4.96,1.05,7.73,1.42,2.78.3,5.48.66,7.82.36,1.17-.16,2.24-.49,3.08-1.07.85-.56,1.41-1.36,1.76-2.17.69-1.65.93-3.16,1.15-4.15.19-1.01.28-1.58.35-1.57Z"/><path class="cls-4" d="M181.33,105.28c.06,0,.16.51.23,1.46.09.93.03,2.43-.72,4-.71,1.63-2.28,3.2-4.35,4.2-2.08,1.03-4.58,1.46-7.12,1.82-2.56.35-4.94.74-7.22.95-1.14.07-2.29,0-3.28-.43-.49-.2-.95-.51-1.3-.87-.34-.37-.6-.75-.82-1.13-.84-1.54-1.14-2.9-1.35-3.82-.19-.93-.22-1.46-.17-1.47.06-.01.21.49.5,1.38.3.88.7,2.2,1.55,3.59.44.69.99,1.34,1.86,1.65.85.34,1.87.38,2.95.3,2.16-.24,4.61-.67,7.15-1.01,2.54-.35,4.94-.75,6.89-1.67,1.96-.9,3.42-2.29,4.14-3.74.78-1.46.92-2.79.94-3.73.03-.94.05-1.47.11-1.47Z"/><path class="cls-4" d="M208.42,100.09c.06,0,.2.47.34,1.36.12.89.29,2.21-.02,3.84-.29,1.63-1.36,3.48-3.12,4.8-1.74,1.36-4.11,2.14-6.57,2.39-2.45.22-4.84.26-6.97-.44-1.05-.35-1.99-.92-2.67-1.68-.67-.79-1-1.63-1.31-2.38-.57-1.52-.85-2.79-1.03-3.67-.17-.88-.2-1.38-.14-1.39.15-.04.54,1.92,1.75,4.82.32.7.7,1.5,1.27,2.12.59.62,1.43,1.11,2.38,1.4,1.91.59,4.26.54,6.62.33,2.36-.24,4.55-.95,6.18-2.16,1.65-1.19,2.65-2.8,3-4.29.37-1.5.31-2.79.29-3.67-.03-.89-.06-1.38,0-1.39Z"/><path class="cls-1" d="M205.29,119.69s.52-.32,1.26-1.2c.75-.86,1.69-2.27,2.67-4.21.49-.97.98-2.08,1.42-3.32.45-1.26.79-2.6.69-4.15-.05-1.51-.23-3.2-1.08-4.66-.8-1.51-2.52-2.34-4.4-2.62-1.88-.33-3.92-.31-6.02-.13-2.1.2-4.28.56-6.44,1.21-2.13.72-4.37,1.62-6.68,2.39-2.32.78-4.72,1.56-7.21,2.26-9.97,2.88-21.28,4.39-33.19,5.21-5.99.17-11.81-.38-17.39-1.03-5.58-.69-10.93-1.47-16.03-2.37-5.09-.99-9.8-2.47-14.12-4.05-2.15-.78-4.23-1.52-6.29-1.9-1.02-.19-2.05-.28-3.01-.18-.96.12-1.88.44-2.65.95-1.56,1.01-2.55,2.68-2.86,4.32-.11.4-.08.83-.11,1.24.04.41.03.82.12,1.22.12.8.32,1.56.57,2.28,1,2.89,2.49,5.14,3.8,6.86,1.33,1.71,2.53,2.91,3.37,3.68.85.77,1.32,1.15,1.29,1.18,0,.01-.14-.07-.37-.24-.23-.18-.6-.43-1.04-.8-.88-.74-2.14-1.9-3.53-3.6-1.37-1.7-2.93-3.95-4-6.91-.27-.74-.49-1.53-.63-2.36-.09-.41-.09-.85-.14-1.29.03-.44-.01-.89.1-1.35.32-1.8,1.35-3.6,3.07-4.74.85-.57,1.86-.94,2.92-1.08,1.07-.12,2.14-.03,3.21.16,2.14.38,4.26,1.12,6.42,1.88,4.31,1.54,8.99,2.98,14.03,3.94,5.05.87,10.43,1.64,15.98,2.31,5.56.64,11.35,1.17,17.26,1.01,11.8-.81,23.11-2.3,32.99-5.11,2.48-.68,4.87-1.44,7.18-2.21,2.33-.77,4.5-1.62,6.72-2.36,2.24-.66,4.45-1.01,6.6-1.19,2.14-.17,4.23-.18,6.19.19.98.18,1.94.45,2.79.95.87.47,1.54,1.21,1.99,2.01.91,1.62,1.05,3.38,1.08,4.93,0,.77,0,1.55-.18,2.28-.15.72-.38,1.39-.61,2.02-.47,1.26-.99,2.36-1.51,3.33-1.04,1.94-2.04,3.33-2.85,4.17-.4.42-.75.7-1,.86-.26.15-.39.22-.4.21Z"/><path class="cls-1" d="M204.06,99.23s.16-.03.48-.04c.32.01.8-.07,1.42.03.31.05.66.08,1.04.16.37.13.79.23,1.21.41.84.4,1.73,1.06,2.4,2.09,1.32,2.1,1.39,5.27.54,8.52-.85,3.3-2.75,6.75-5.44,10.04-2.7,3.29-6.19,6.42-10.24,9.33-4.05,2.9-8.68,5.6-13.84,7.81-10.31,4.4-22.67,6.86-35.61,6.44-12.96-.35-25.06-4.06-34.94-9.29-4.94-2.64-9.44-5.48-13.47-8.41-2-1.48-3.87-3.01-5.58-4.57-1.69-1.58-3.22-3.21-4.54-4.89-1.27-1.71-2.34-3.45-3.08-5.24-.18-.45-.3-.91-.45-1.35-.15-.44-.28-.89-.35-1.35-.15-.91-.16-1.81-.05-2.66.21-1.71.93-3.25,2-4.29,1.07-1.05,2.42-1.54,3.6-1.69,1.2-.17,2.27-.03,3.17.11.9.16,1.65.36,2.25.53.6.18,1.05.33,1.35.44.3.11.45.17.45.19,0,.01-.16-.02-.47-.1-.31-.08-.77-.2-1.37-.36-1.19-.26-3.01-.79-5.32-.48-1.13.17-2.38.66-3.35,1.65-.98.98-1.63,2.43-1.8,4.05-.09.81-.07,1.66.08,2.51.07.43.2.85.35,1.28.15.43.27.87.45,1.3.73,1.72,1.79,3.41,3.05,5.07,1.31,1.63,2.82,3.22,4.5,4.77,1.7,1.53,3.56,3.02,5.55,4.48,4,2.88,8.51,5.69,13.41,8.28,9.81,5.14,21.78,8.78,34.59,9.13,12.8.41,25.04-2,35.26-6.31,5.11-2.16,9.7-4.81,13.73-7.65,4.02-2.86,7.49-5.92,10.18-9.14,2.68-3.21,4.57-6.57,5.45-9.77.88-3.17.84-6.22-.35-8.21-.6-.98-1.43-1.62-2.22-2.03-.4-.19-.8-.3-1.15-.44-.37-.09-.71-.13-1.01-.19-1.22-.15-1.88-.12-1.88-.17Z"/><path class="cls-1" d="M110.01,139.73c-.13.21-.56.18-.97-.07s-.64-.62-.51-.83c.13-.21.56-.18.97.07s.64.62.51.83Z"/><path class="cls-1" d="M151.85,149.07c0,.12-2.16.1-5.63-.09-3.47-.2-8.27-.56-13.5-1.48-2.62-.47-5.08-1.06-7.3-1.71-2.21-.68-4.17-1.38-5.76-2.09-.81-.33-1.51-.7-2.13-1-.62-.3-1.14-.59-1.56-.85-.84-.5-1.29-.8-1.26-.85.07-.13,1.97.88,5.18,2.13,1.6.63,3.56,1.27,5.75,1.89,2.2.59,4.64,1.15,7.23,1.62,5.18.91,9.95,1.37,13.4,1.73,3.45.35,5.59.59,5.58.72Z"/><path class="cls-1" d="M158.35,147.39c.08.09-.05.36-.4.67-.35.31-.94.61-1.65.72-.71.1-1.37-.02-1.79-.21-.43-.19-.63-.42-.58-.52.11-.23,1.08.04,2.24-.15,1.16-.16,2.01-.69,2.18-.51Z"/><path class="cls-1" d="M195.19,133.46s-.2.43-.71,1.1c-.53.66-1.35,1.57-2.5,2.55-2.27,2-5.9,4.17-10.15,5.87-4.24,1.73-8.22,2.91-11.13,3.61-2.91.7-4.75.95-4.77.84-.03-.13,1.76-.59,4.61-1.45,2.85-.85,6.76-2.11,10.95-3.83,4.2-1.68,7.77-3.7,10.09-5.54,2.33-1.81,3.49-3.27,3.61-3.17Z"/><path class="cls-1" d="M115.09,83.55c.08-.02.21.26.41.77.17.51.52,1.25.56,2.33.02.53-.05,1.09-.16,1.67-.1.59-.3,1.24-.61,1.86-.61,1.22-1.7,2.51-3.36,3.01-.81.25-1.69.23-2.44,0-.77-.21-1.42-.61-1.96-1.06-1.08-.89-1.68-2.09-2.05-2.95-.2-.45-.38-.89-.47-1.3-.09-.41-.1-.76-.1-1.03,0-.56.04-.86.12-.87.08,0,.18.29.31.81.13.55.33,1.21.84,2.03.25.42.49.89.81,1.31.32.43.71.84,1.18,1.2.92.72,2.2,1.16,3.44.78,1.24-.36,2.19-1.38,2.76-2.41.29-.52.48-1.05.61-1.58.14-.54.24-1.04.27-1.49.07-.88-.15-1.67-.19-2.21-.06-.55-.06-.86.02-.88Z"/><path class="cls-1" d="M116.52,93.24c-.04-.12.28-.31.69-.67.41-.36.88-.95,1.19-1.71.3-.76.36-1.51.32-2.06-.04-.54-.14-.9-.03-.96.09-.05.4.22.61.84.22.61.25,1.56-.12,2.49-.37.93-1.06,1.59-1.64,1.88-.58.3-1,.28-1.02.18Z"/><path class="cls-1" d="M108.56,96.05c-.02.22-1.58.1-3.03-1.05-1.46-1.13-1.95-2.61-1.74-2.69.22-.11.97,1.03,2.26,2.03,1.28,1.02,2.57,1.47,2.51,1.71Z"/><path class="cls-1" d="M167.82,84.18c.07,0,.15.29.2.82.07.52.04,1.3.29,2.11.12.41.33.86.57,1.33.23.47.53.92.91,1.35.75.84,1.85,1.59,3.08,1.67,1.23.09,2.34-.59,3.05-1.46.36-.43.64-.91.85-1.37.21-.45.33-.95.48-1.39.31-.88.36-1.54.36-2.08.02-.52.05-.82.12-.83.07,0,.18.27.29.79.05.26.12.59.12.99,0,.4-.07.85-.16,1.31-.16.89-.47,2.13-1.29,3.19-.41.53-.94,1.04-1.61,1.4-.66.37-1.47.57-2.29.51-1.65-.12-2.94-1.09-3.77-2.1-.42-.51-.74-1.08-.96-1.61-.22-.52-.4-1.03-.5-1.53-.19-1.02-.02-1.78.03-2.3.07-.52.14-.81.21-.81Z"/><path class="cls-1" d="M168.53,93.54c0,.1-.39.2-1,.05-.6-.15-1.38-.63-1.93-1.42-.54-.79-.71-1.69-.64-2.3.07-.62.3-.95.4-.91.12.03.09.39.17.91.07.52.29,1.21.73,1.85.45.64,1.02,1.09,1.47,1.34.46.26.8.36.79.48Z"/><path class="cls-1" d="M176.56,94.49c-.1-.21,1.01-.91,1.99-2.13,1-1.2,1.46-2.43,1.69-2.37.21.03.06,1.51-1.06,2.88-1.12,1.38-2.54,1.82-2.61,1.62Z"/><path class="cls-1" d="M235.33,206.77c.13.21-1.37,1.38-3.35,2.61-1.98,1.23-3.69,2.06-3.82,1.86-.13-.21,1.37-1.38,3.35-2.61,1.98-1.23,3.69-2.06,3.82-1.86Z"/><path class="cls-1" d="M244.58,216.08c.22.08-.47,2.04-2.24,3.82-1.75,1.79-3.7,2.5-3.79,2.28-.12-.23,1.53-1.24,3.16-2.91,1.65-1.65,2.64-3.31,2.87-3.19Z"/><path class="cls-1" d="M52.96,228.73c-.13.21-1.71-.54-3.65-1.42-1.94-.89-3.54-1.59-3.46-1.83.07-.23,1.83.11,3.83,1.02,2,.91,3.41,2.02,3.29,2.22Z"/><path class="cls-1" d="M62,221.03c-.21.16-1.34-1.09-3.06-2.16-1.7-1.09-3.32-1.58-3.26-1.83.02-.23,1.87-.11,3.74,1.08,1.88,1.18,2.78,2.79,2.58,2.91Z"/><path class="cls-11" d="M314.53,28.12c-3.82-22.72-34.01-39.16-55.47-19.04-6.74,6.32-11.74,15.56-12.18,24.86-.44,9.53,5.49,18.24,12.83,23.81,2.32,1.76,4.85,3.31,7.51,4.57-.94,3.57-2.11,7.09-3.53,10.53-.31.75.35,1.91,1.27,1.48,5.13-2.37,9.97-5.26,14.45-8.63,1.83.16,3.67.16,5.52-.02,9.02-.87,17.01-5.93,22.6-12.94,6.48-8.12,8.32-16.75,7-24.62Z"/><path class="cls-10" d="M265.04,40.48c-2.72,0-4.64-2.16-4.64-5.04s2-5.04,4.8-5.04,4.72,2.08,4.72,5.04-1.84,5.04-4.8,5.04h-.08Z"/><path class="cls-10" d="M281.6,40.48c-2.72,0-4.64-2.16-4.64-5.04s2-5.04,4.8-5.04,4.72,2.08,4.72,5.04-1.84,5.04-4.8,5.04h-.08Z"/><path class="cls-10" d="M298.16,40.48c-2.72,0-4.64-2.16-4.64-5.04s2-5.04,4.8-5.04,4.72,2.08,4.72,5.04-1.84,5.04-4.8,5.04h-.08Z"/></g></g></g></svg>